# xmcd CD database file
#
# Track frame offsets:
#	150
#	43878
#	70052
#	99849
#	134355
#	167705
#	192970
#
# Disc length: 2805 seconds
#
# Revision: 0
# Processed by: cddbd v1.5.2PL0 Copyright (c) Steve Scherf et al.
# Submitted via: CDex 1.70beta2
#
DISCID=5b0af307
DTITLE=Tony Oxley - Derek Bailey - Pat Thomas - Matt Wand - Tony Oxley - Derek Bailey Quartet
DYEAR=1993
DGENRE=Jazz
TTITLE0=Two and Two
TTITLE1=Renown
TTITLE2=Hydrolysis
TTITLE3=Monics
TTITLE4=Mirage
TTITLE5=Incedentaly
TTITLE6=Cymbal Pointer
EXTD=YEAR: 1993
EXTT0=
EXTT1=
EXTT2=
EXTT3=
EXTT4=
EXTT5=
EXTT6=
PLAYORDER=
